<svg data-v-423bf9ae="" xmlns="http://www.w3.org/2000/svg" viewBox="0 0 613.5120147874308 60" class="font"><!----><!----><!----><g data-v-423bf9ae="" id="65ea25f9-7367-472b-9486-dd32d22f9ecf" fill="black" transform="matrix(4.731977939605713,0,0,4.731977939605713,-2.3105392456054688,-11.219964027404785)"><path d="M6.68 10.47L7.29 7.35L7.29 7.35Q7.10 7.11 6.89 7.01L6.89 7.01L6.89 7.01Q6.68 6.92 6.44 6.92L6.44 6.92L6.44 6.92Q6.12 6.92 5.73 7.11L5.73 7.11L5.73 7.11Q5.35 7.31 5.01 7.76L5.01 7.76L5.01 7.76Q4.69 8.19 4.47 8.76L4.47 8.76L4.47 8.76Q4.24 9.32 4.24 10.08L4.24 10.08L4.24 10.08Q4.24 11.42 5.22 11.42L5.22 11.42L5.22 11.42Q5.52 11.42 5.83 11.27L5.83 11.27L5.83 11.27Q6.15 11.12 6.64 10.71L6.64 10.71L6.64 10.71Q6.65 10.65 6.66 10.60L6.66 10.60L6.66 10.60Q6.66 10.54 6.68 10.47L6.68 10.47ZM8.44 6.50L7.63 10.50L7.63 10.50Q7.52 11.02 7.72 11.30L7.72 11.30L7.72 11.30Q7.92 11.59 8.39 11.59L8.39 11.59L8.39 11.59Q8.75 11.59 9.11 11.40L9.11 11.40L9.11 11.40Q9.48 11.21 9.77 10.81L9.77 10.81L9.77 10.81Q10.05 10.40 10.23 9.76L10.23 9.76L10.23 9.76Q10.42 9.11 10.42 8.20L10.42 8.20L10.42 8.20Q10.42 7.28 10.12 6.57L10.12 6.57L10.12 6.57Q9.83 5.85 9.32 5.36L9.32 5.36L9.32 5.36Q8.81 4.87 8.10 4.62L8.10 4.62L8.10 4.62Q7.39 4.37 6.58 4.37L6.58 4.37L6.58 4.37Q5.43 4.37 4.47 4.82L4.47 4.82L4.47 4.82Q3.51 5.28 2.82 6.04L2.82 6.04L2.82 6.04Q2.13 6.80 1.74 7.81L1.74 7.81L1.74 7.81Q1.36 8.81 1.36 9.90L1.36 9.90L1.36 9.90Q1.36 11.03 1.72 11.89L1.72 11.89L1.72 11.89Q2.09 12.75 2.70 13.33L2.70 13.33L2.70 13.33Q3.32 13.90 4.14 14.19L4.14 14.19L4.14 14.19Q4.97 14.48 5.88 14.48L5.88 14.48L5.88 14.48Q6.55 14.48 7.08 14.36L7.08 14.36L7.08 14.36Q7.60 14.25 8.06 14.03L8.06 14.03L8.25 14.45L8.25 14.45Q7.62 14.77 6.92 14.91L6.92 14.91L6.92 14.91Q6.22 15.05 5.59 15.05L5.59 15.05L5.59 15.05Q4.51 15.05 3.58 14.73L3.58 14.73L3.58 14.73Q2.66 14.41 1.97 13.78L1.97 13.78L1.97 13.78Q1.27 13.15 0.88 12.20L0.88 12.20L0.88 12.20Q0.49 11.26 0.49 10.00L0.49 10.00L0.49 10.00Q0.49 8.68 0.97 7.55L0.97 7.55L0.97 7.55Q1.44 6.41 2.27 5.57L2.27 5.57L2.27 5.57Q3.11 4.73 4.24 4.26L4.24 4.26L4.24 4.26Q5.36 3.78 6.68 3.78L6.68 3.78L6.68 3.78Q7.76 3.78 8.61 4.12L8.61 4.12L8.61 4.12Q9.46 4.45 10.05 5.05L10.05 5.05L10.05 5.05Q10.64 5.64 10.96 6.48L10.96 6.48L10.96 6.48Q11.27 7.31 11.27 8.32L11.27 8.32L11.27 8.32Q11.27 9.34 10.97 10.09L10.97 10.09L10.97 10.09Q10.67 10.84 10.19 11.32L10.19 11.32L10.19 11.32Q9.72 11.80 9.15 12.03L9.15 12.03L9.15 12.03Q8.58 12.26 8.05 12.26L8.05 12.26L8.05 12.26Q7.45 12.26 7.08 11.98L7.08 11.98L7.08 11.98Q6.72 11.69 6.65 11.19L6.65 11.19L6.65 11.19Q6.22 11.66 5.76 11.96L5.76 11.96L5.76 11.96Q5.31 12.26 4.77 12.26L4.77 12.26L4.77 12.26Q4.48 12.26 4.21 12.16L4.21 12.16L4.21 12.16Q3.93 12.05 3.72 11.82L3.72 11.82L3.72 11.82Q3.51 11.59 3.39 11.23L3.39 11.23L3.39 11.23Q3.26 10.86 3.26 10.35L3.26 10.35L3.26 10.35Q3.26 9.51 3.60 8.76L3.60 8.76L3.60 8.76Q3.95 8.01 4.44 7.43L4.44 7.43L4.44 7.43Q4.90 6.87 5.44 6.57L5.44 6.57L5.44 6.57Q5.98 6.26 6.55 6.26L6.55 6.26L6.55 6.26Q7.07 6.26 7.50 6.61L7.50 6.61L8.18 6.27L8.44 6.50ZM12.25 6.36L13.41 6.20L13.41 6.20Q13.47 5.64 13.54 5.19L13.54 5.19L13.54 5.19Q13.62 4.75 13.73 4.39L13.73 4.39L13.73 4.39Q13.85 4.03 14.01 3.75L14.01 3.75L14.01 3.75Q14.18 3.46 14.41 3.22L14.41 3.22L14.41 3.22Q14.85 2.73 15.37 2.55L15.37 2.55L15.37 2.55Q15.89 2.37 16.37 2.37L16.37 2.37L16.37 2.37Q16.87 2.37 17.24 2.53L17.24 2.53L17.24 2.53Q17.61 2.70 17.72 3.11L17.72 3.11L17.72 3.11Q17.70 3.39 17.47 3.57L17.47 3.57L17.47 3.57Q17.25 3.75 16.87 3.75L16.87 3.75L16.87 3.75Q16.60 3.75 16.37 3.64L16.37 3.64L16.37 3.64Q16.13 3.53 15.86 3.32L15.86 3.32L15.51 3.04L15.51 3.04Q15.23 3.25 15.04 3.60L15.04 3.60L15.04 3.60Q14.81 3.96 14.67 4.59L14.67 4.59L14.67 4.59Q14.53 5.22 14.56 6.23L14.56 6.23L16.48 6.23L16.48 6.97L14.59 6.97L14.59 9.91L14.59 9.91Q14.59 10.47 14.59 11.03L14.59 11.03L14.59 11.03Q14.60 11.58 14.62 12.14L14.62 12.14L15.86 12.35L15.86 12.85L12.26 12.85L12.26 12.35L13.37 12.15L13.37 12.15Q13.38 11.59 13.39 11.03L13.39 11.03L13.39 11.03Q13.40 10.47 13.40 9.91L13.40 9.91L13.40 6.97L12.25 6.97L12.25 6.36ZM19.36 6.12L19.52 7.76L19.52 7.76Q19.88 6.92 20.42 6.45L20.42 6.45L20.42 6.45Q20.96 5.98 21.53 5.98L21.53 5.98L21.53 5.98Q21.84 5.98 22.13 6.14L22.13 6.14L22.13 6.14Q22.41 6.30 22.48 6.66L22.48 6.66L22.48 6.66Q22.48 7.01 22.25 7.22L22.25 7.22L22.25 7.22Q22.01 7.42 21.64 7.42L21.64 7.42L21.64 7.42Q21.21 7.42 20.85 7.07L20.85 7.07L20.75 6.97L20.75 6.97Q20.31 7.29 20.02 7.74L20.02 7.74L20.02 7.74Q19.73 8.18 19.53 8.81L19.53 8.81L19.53 9.91L19.53 9.91Q19.53 10.37 19.54 10.99L19.54 10.99L19.54 10.99Q19.54 11.61 19.56 12.14L19.56 12.14L20.71 12.35L20.71 12.85L17.32 12.85L17.32 12.35L18.33 12.17L18.33 12.17Q18.34 11.63 18.35 11.01L18.35 11.01L18.35 11.01Q18.35 10.39 18.35 9.91L18.35 9.91L18.35 9.20L18.35 9.20Q18.35 8.62 18.34 8.25L18.34 8.25L18.34 8.25Q18.33 7.87 18.31 7.45L18.31 7.45L17.21 7.32L17.21 6.83L19.15 5.98L19.36 6.12ZM24.43 8.86L26.98 8.86L26.98 8.86Q27.48 8.86 27.65 8.65L27.65 8.65L27.65 8.65Q27.82 8.44 27.82 8.13L27.82 8.13L27.82 8.13Q27.82 7.84 27.70 7.57L27.70 7.57L27.70 7.57Q27.58 7.29 27.38 7.08L27.38 7.08L27.38 7.08Q27.17 6.87 26.90 6.75L26.90 6.75L26.90 6.75Q26.63 6.62 26.31 6.62L26.31 6.62L26.31 6.62Q26.01 6.62 25.70 6.74L25.70 6.74L25.70 6.74Q25.38 6.86 25.12 7.13L25.12 7.13L25.12 7.13Q24.86 7.41 24.68 7.83L24.68 7.83L24.68 7.83Q24.49 8.26 24.43 8.86L24.43 8.86ZM28.88 9.46L24.40 9.46L24.40 9.46Q24.43 10.77 25.05 11.47L25.05 11.47L25.05 11.47Q25.66 12.17 26.67 12.17L26.67 12.17L26.67 12.17Q27.34 12.17 27.79 11.89L27.79 11.89L27.79 11.89Q28.24 11.61 28.62 11.16L28.62 11.16L28.95 11.42L28.95 11.42Q28.59 12.18 27.91 12.62L27.91 12.62L27.91 12.62Q27.23 13.06 26.26 13.06L26.26 13.06L26.26 13.06Q25.55 13.06 24.98 12.82L24.98 12.82L24.98 12.82Q24.40 12.59 24.00 12.13L24.00 12.13L24.00 12.13Q23.59 11.68 23.37 11.03L23.37 11.03L23.37 11.03Q23.14 10.39 23.14 9.59L23.14 9.59L23.14 9.59Q23.14 8.79 23.39 8.13L23.39 8.13L23.39 8.13Q23.65 7.46 24.09 6.99L24.09 6.99L24.09 6.99Q24.53 6.51 25.12 6.24L25.12 6.24L25.12 6.24Q25.70 5.98 26.36 5.98L26.36 5.98L26.36 5.98Q26.91 5.98 27.39 6.16L27.39 6.16L27.39 6.16Q27.87 6.34 28.22 6.69L28.22 6.69L28.22 6.69Q28.57 7.04 28.78 7.55L28.78 7.55L28.78 7.55Q28.98 8.05 28.98 8.68L28.98 8.68L28.98 8.68Q28.98 8.92 28.95 9.11L28.95 9.11L28.95 9.11Q28.92 9.31 28.88 9.46L28.88 9.46ZM31.57 8.86L34.12 8.86L34.12 8.86Q34.62 8.86 34.79 8.65L34.79 8.65L34.79 8.65Q34.96 8.44 34.96 8.13L34.96 8.13L34.96 8.13Q34.96 7.84 34.84 7.57L34.84 7.57L34.84 7.57Q34.72 7.29 34.52 7.08L34.52 7.08L34.52 7.08Q34.31 6.87 34.04 6.75L34.04 6.75L34.04 6.75Q33.77 6.62 33.45 6.62L33.45 6.62L33.45 6.62Q33.15 6.62 32.84 6.74L32.84 6.74L32.84 6.74Q32.52 6.86 32.26 7.13L32.26 7.13L32.26 7.13Q32.00 7.41 31.82 7.83L31.82 7.83L31.82 7.83Q31.63 8.26 31.57 8.86L31.57 8.86ZM36.02 9.46L31.54 9.46L31.54 9.46Q31.57 10.77 32.19 11.47L32.19 11.47L32.19 11.47Q32.80 12.17 33.81 12.17L33.81 12.17L33.81 12.17Q34.48 12.17 34.93 11.89L34.93 11.89L34.93 11.89Q35.38 11.61 35.76 11.16L35.76 11.16L36.09 11.42L36.09 11.42Q35.73 12.18 35.05 12.62L35.05 12.62L35.05 12.62Q34.37 13.06 33.40 13.06L33.40 13.06L33.40 13.06Q32.69 13.06 32.12 12.82L32.12 12.82L32.12 12.82Q31.54 12.59 31.14 12.13L31.14 12.13L31.14 12.13Q30.73 11.68 30.51 11.03L30.51 11.03L30.51 11.03Q30.28 10.39 30.28 9.59L30.28 9.59L30.28 9.59Q30.28 8.79 30.53 8.13L30.53 8.13L30.53 8.13Q30.79 7.46 31.23 6.99L31.23 6.99L31.23 6.99Q31.67 6.51 32.26 6.24L32.26 6.24L32.26 6.24Q32.84 5.98 33.50 5.98L33.50 5.98L33.50 5.98Q34.05 5.98 34.53 6.16L34.53 6.16L34.53 6.16Q35.01 6.34 35.36 6.69L35.36 6.69L35.36 6.69Q35.71 7.04 35.92 7.55L35.92 7.55L35.92 7.55Q36.12 8.05 36.12 8.68L36.12 8.68L36.12 8.68Q36.12 8.92 36.09 9.11L36.09 9.11L36.09 9.11Q36.06 9.31 36.02 9.46L36.02 9.46ZM47.22 6.23L47.22 6.80L46.45 6.97L44.39 12.99L43.88 12.99L42.00 8.12L40.21 12.99L39.69 12.99L37.44 6.93L36.64 6.80L36.64 6.23L39.83 6.23L39.83 6.80L38.74 6.96L40.19 11.26L41.76 6.96L40.73 6.80L40.73 6.23L43.82 6.23L43.82 6.80L42.77 6.97L44.37 11.23L45.70 6.97L44.65 6.80L44.65 6.23L47.22 6.23ZM49.01 8.86L51.56 8.86L51.56 8.86Q52.07 8.86 52.23 8.65L52.23 8.65L52.23 8.65Q52.40 8.44 52.40 8.13L52.40 8.13L52.40 8.13Q52.40 7.84 52.28 7.57L52.28 7.57L52.28 7.57Q52.16 7.29 51.96 7.08L51.96 7.08L51.96 7.08Q51.76 6.87 51.49 6.75L51.49 6.75L51.49 6.75Q51.21 6.62 50.89 6.62L50.89 6.62L50.89 6.62Q50.60 6.62 50.28 6.74L50.28 6.74L50.28 6.74Q49.97 6.86 49.71 7.13L49.71 7.13L49.71 7.13Q49.45 7.41 49.26 7.83L49.26 7.83L49.26 7.83Q49.07 8.26 49.01 8.86L49.01 8.86ZM53.47 9.46L48.99 9.46L48.99 9.46Q49.01 10.77 49.63 11.47L49.63 11.47L49.63 11.47Q50.25 12.17 51.25 12.17L51.25 12.17L51.25 12.17Q51.93 12.17 52.37 11.89L52.37 11.89L52.37 11.89Q52.82 11.61 53.20 11.16L53.20 11.16L53.54 11.42L53.54 11.42Q53.17 12.18 52.49 12.62L52.49 12.62L52.49 12.62Q51.81 13.06 50.85 13.06L50.85 13.06L50.85 13.06Q50.13 13.06 49.56 12.82L49.56 12.82L49.56 12.82Q48.99 12.59 48.58 12.13L48.58 12.13L48.58 12.13Q48.17 11.68 47.95 11.03L47.95 11.03L47.95 11.03Q47.73 10.39 47.73 9.59L47.73 9.59L47.73 9.59Q47.73 8.79 47.98 8.13L47.98 8.13L47.98 8.13Q48.23 7.46 48.67 6.99L48.67 6.99L48.67 6.99Q49.11 6.51 49.70 6.24L49.70 6.24L49.70 6.24Q50.29 5.98 50.95 5.98L50.95 5.98L50.95 5.98Q51.49 5.98 51.98 6.16L51.98 6.16L51.98 6.16Q52.46 6.34 52.81 6.69L52.81 6.69L52.81 6.69Q53.16 7.04 53.36 7.55L53.36 7.55L53.36 7.55Q53.56 8.05 53.56 8.68L53.56 8.68L53.56 8.68Q53.56 8.92 53.54 9.11L53.54 9.11L53.54 9.11Q53.51 9.31 53.47 9.46L53.47 9.46ZM56.74 7.59L56.74 11.48L56.74 11.48Q57.18 11.89 57.60 12.08L57.60 12.08L57.60 12.08Q58.02 12.26 58.41 12.26L58.41 12.26L58.41 12.26Q58.79 12.26 59.12 12.10L59.12 12.10L59.12 12.10Q59.46 11.93 59.71 11.59L59.71 11.59L59.71 11.59Q59.96 11.26 60.11 10.75L60.11 10.75L60.11 10.75Q60.26 10.25 60.26 9.58L60.26 9.58L60.26 9.58Q60.26 8.22 59.77 7.50L59.77 7.50L59.77 7.50Q59.28 6.78 58.48 6.78L58.48 6.78L58.48 6.78Q58.16 6.78 57.74 6.94L57.74 6.94L57.74 6.94Q57.32 7.11 56.74 7.59L56.74 7.59ZM56.70 4.75L56.70 7.06L56.70 7.06Q57.19 6.50 57.73 6.24L57.73 6.24L57.73 6.24Q58.27 5.98 58.86 5.98L58.86 5.98L58.86 5.98Q59.42 5.98 59.90 6.22L59.90 6.22L59.90 6.22Q60.38 6.45 60.74 6.91L60.74 6.91L60.74 6.91Q61.10 7.36 61.31 8.01L61.31 8.01L61.31 8.01Q61.52 8.65 61.52 9.46L61.52 9.46L61.52 9.46Q61.52 10.28 61.30 10.94L61.30 10.94L61.30 10.94Q61.08 11.61 60.70 12.08L60.70 12.08L60.70 12.08Q60.31 12.54 59.79 12.80L59.79 12.80L59.79 12.80Q59.26 13.06 58.65 13.06L58.65 13.06L58.65 13.06Q58.16 13.06 57.69 12.87L57.69 12.87L57.69 12.87Q57.23 12.67 56.80 12.18L56.80 12.18L56.69 12.18L56.60 12.99L54.49 12.85L54.49 12.35L55.54 12.15L55.54 12.15Q55.55 11.62 55.56 11.00L55.56 11.00L55.56 11.00Q55.57 10.37 55.57 9.91L55.57 9.91L55.57 3.91L54.42 3.77L54.42 3.28L56.56 2.65L56.76 2.76L56.70 4.75ZM65.34 8.82L65.76 8.97L65.76 8.97Q66.82 9.37 67.25 9.88L67.25 9.88L67.25 9.88Q67.68 10.39 67.68 11.05L67.68 11.05L67.68 11.05Q67.68 11.44 67.51 11.80L67.51 11.80L67.51 11.80Q67.34 12.17 67.00 12.45L67.00 12.45L67.00 12.45Q66.65 12.73 66.14 12.89L66.14 12.89L66.14 12.89Q65.63 13.06 64.96 13.06L64.96 13.06L64.96 13.06Q64.36 13.06 63.88 12.93L63.88 12.93L63.88 12.93Q63.39 12.80 62.86 12.52L62.86 12.52L62.82 10.99L63.59 10.99L63.85 12.19L63.85 12.19Q64.34 12.42 64.99 12.42L64.99 12.42L64.99 12.42Q65.79 12.42 66.18 12.12L66.18 12.12L66.18 12.12Q66.57 11.83 66.57 11.34L66.57 11.34L66.57 11.34Q66.57 10.89 66.24 10.63L66.24 10.63L66.24 10.63Q65.91 10.36 65.24 10.11L65.24 10.11L64.60 9.87L64.60 9.87Q63.83 9.59 63.36 9.13L63.36 9.13L63.36 9.13Q62.90 8.68 62.90 8.01L62.90 8.01L62.90 8.01Q62.90 7.60 63.08 7.24L63.08 7.24L63.08 7.24Q63.25 6.87 63.57 6.59L63.57 6.59L63.57 6.59Q63.88 6.31 64.34 6.15L64.34 6.15L64.34 6.15Q64.79 5.98 65.35 5.98L65.35 5.98L65.35 5.98Q65.93 5.98 66.39 6.13L66.39 6.13L66.39 6.13Q66.85 6.27 67.31 6.55L67.31 6.55L67.26 7.98L66.53 7.98L66.32 6.86L66.32 6.86Q65.81 6.62 65.34 6.62L65.34 6.62L65.34 6.62Q64.69 6.62 64.37 6.90L64.37 6.90L64.37 6.90Q64.04 7.17 64.04 7.64L64.04 7.64L64.04 7.64Q64.04 8.06 64.32 8.31L64.32 8.31L64.32 8.31Q64.61 8.55 65.34 8.82L65.34 8.82ZM70.38 4.48L70.38 4.48L70.38 4.48Q69.97 4.48 69.71 4.23L69.71 4.23L69.71 4.23Q69.44 3.98 69.44 3.57L69.44 3.57L69.44 3.57Q69.44 3.16 69.71 2.92L69.71 2.92L69.71 2.92Q69.97 2.67 70.38 2.67L70.38 2.67L70.38 2.67Q70.78 2.67 71.05 2.92L71.05 2.92L71.05 2.92Q71.32 3.16 71.32 3.57L71.32 3.57L71.32 3.57Q71.32 3.98 71.05 4.23L71.05 4.23L71.05 4.23Q70.78 4.48 70.38 4.48ZM71.01 12.15L71.97 12.35L71.97 12.85L68.73 12.85L68.73 12.35L69.78 12.15L69.78 12.15Q69.79 11.62 69.80 11.00L69.80 11.00L69.80 11.00Q69.80 10.37 69.80 9.91L69.80 9.91L69.80 9.21L69.80 9.21Q69.80 8.64 69.79 8.25L69.79 8.25L69.79 8.25Q69.78 7.87 69.76 7.45L69.76 7.45L68.66 7.32L68.66 6.83L70.81 5.98L71.02 6.12L70.98 8.02L70.98 9.91L70.98 9.91Q70.98 10.37 70.99 11.00L70.99 11.00L70.99 11.00Q70.99 11.62 71.01 12.15L71.01 12.15ZM76.59 11.87L76.93 12.25L76.93 12.25Q76.66 12.60 76.24 12.80L76.24 12.80L76.24 12.80Q75.81 12.99 75.28 12.99L75.28 12.99L75.28 12.99Q74.54 12.99 74.11 12.61L74.11 12.61L74.11 12.61Q73.68 12.22 73.68 11.40L73.68 11.40L73.68 11.40Q73.68 11.13 73.69 10.87L73.69 10.87L73.69 10.87Q73.70 10.61 73.70 10.21L73.70 10.21L73.70 6.97L72.53 6.97L72.53 6.36L73.78 6.20L74.13 4.30L74.98 4.30L74.91 6.23L76.79 6.23L76.79 6.97L74.89 6.97L74.89 11.23L74.89 11.23Q74.89 11.77 75.09 12.02L75.09 12.02L75.09 12.02Q75.29 12.26 75.66 12.26L75.66 12.26L75.66 12.26Q76.08 12.26 76.59 11.87L76.59 11.87ZM78.92 8.86L81.47 8.86L81.47 8.86Q81.97 8.86 82.14 8.65L82.14 8.65L82.14 8.65Q82.31 8.44 82.31 8.13L82.31 8.13L82.31 8.13Q82.31 7.84 82.19 7.57L82.19 7.57L82.19 7.57Q82.07 7.29 81.87 7.08L81.87 7.08L81.87 7.08Q81.66 6.87 81.39 6.75L81.39 6.75L81.39 6.75Q81.12 6.62 80.79 6.62L80.79 6.62L80.79 6.62Q80.50 6.62 80.19 6.74L80.19 6.74L80.19 6.74Q79.87 6.86 79.61 7.13L79.61 7.13L79.61 7.13Q79.35 7.41 79.16 7.83L79.16 7.83L79.16 7.83Q78.97 8.26 78.92 8.86L78.92 8.86ZM83.37 9.46L78.89 9.46L78.89 9.46Q78.92 10.77 79.53 11.47L79.53 11.47L79.53 11.47Q80.15 12.17 81.16 12.17L81.16 12.17L81.16 12.17Q81.83 12.17 82.28 11.89L82.28 11.89L82.28 11.89Q82.73 11.61 83.10 11.16L83.10 11.16L83.44 11.42L83.44 11.42Q83.08 12.18 82.40 12.62L82.40 12.62L82.40 12.62Q81.72 13.06 80.75 13.06L80.75 13.06L80.75 13.06Q80.04 13.06 79.46 12.82L79.46 12.82L79.46 12.82Q78.89 12.59 78.48 12.13L78.48 12.13L78.48 12.13Q78.08 11.68 77.85 11.03L77.85 11.03L77.85 11.03Q77.63 10.39 77.63 9.59L77.63 9.59L77.63 9.59Q77.63 8.79 77.88 8.13L77.88 8.13L77.88 8.13Q78.13 7.46 78.58 6.99L78.58 6.99L78.58 6.99Q79.02 6.51 79.60 6.24L79.60 6.24L79.60 6.24Q80.19 5.98 80.85 5.98L80.85 5.98L80.85 5.98Q81.40 5.98 81.88 6.16L81.88 6.16L81.88 6.16Q82.36 6.34 82.71 6.69L82.71 6.69L82.71 6.69Q83.06 7.04 83.27 7.55L83.27 7.55L83.27 7.55Q83.47 8.05 83.47 8.68L83.47 8.68L83.47 8.68Q83.47 8.92 83.44 9.11L83.44 9.11L83.44 9.11Q83.41 9.31 83.37 9.46L83.37 9.46ZM88.30 11.87L88.63 12.25L88.63 12.25Q88.37 12.60 87.94 12.80L87.94 12.80L87.94 12.80Q87.51 12.99 86.98 12.99L86.98 12.99L86.98 12.99Q86.24 12.99 85.81 12.61L85.81 12.61L85.81 12.61Q85.39 12.22 85.39 11.40L85.39 11.40L85.39 11.40Q85.39 11.13 85.39 10.87L85.39 10.87L85.39 10.87Q85.40 10.61 85.40 10.21L85.40 10.21L85.40 6.97L84.24 6.97L84.24 6.36L85.48 6.20L85.83 4.30L86.69 4.30L86.62 6.23L88.49 6.23L88.49 6.97L86.59 6.97L86.59 11.23L86.59 11.23Q86.59 11.77 86.79 12.02L86.79 12.02L86.79 12.02Q87.00 12.26 87.36 12.26L87.36 12.26L87.36 12.26Q87.78 12.26 88.30 11.87L88.30 11.87ZM95.41 12.14L96.38 12.35L96.38 12.85L94.43 12.99L94.28 11.75L94.28 11.75Q93.70 12.45 93.07 12.75L93.07 12.75L93.07 12.75Q92.44 13.06 91.80 13.06L91.80 13.06L91.80 13.06Q91.38 13.06 91.04 12.93L91.04 12.93L91.04 12.93Q90.69 12.80 90.45 12.50L90.45 12.50L90.45 12.50Q90.22 12.19 90.10 11.72L90.10 11.72L90.10 11.72Q89.98 11.24 89.98 10.54L89.98 10.54L90.02 7.01L89.03 6.80L89.03 6.31L91.08 6.12L91.22 6.26L91.15 8.22L91.15 10.39L91.15 10.39Q91.15 11.33 91.43 11.70L91.43 11.70L91.43 11.70Q91.70 12.07 92.27 12.07L92.27 12.07L92.27 12.07Q93.25 12.07 94.23 11.16L94.23 11.16L94.28 7.01L93.28 6.80L93.28 6.31L95.31 6.12L95.45 6.26L95.41 8.22L95.41 12.14ZM101.04 11.87L101.37 12.25L101.37 12.25Q101.11 12.60 100.68 12.80L100.68 12.80L100.68 12.80Q100.25 12.99 99.72 12.99L99.72 12.99L99.72 12.99Q98.98 12.99 98.55 12.61L98.55 12.61L98.55 12.61Q98.13 12.22 98.13 11.40L98.13 11.40L98.13 11.40Q98.13 11.13 98.13 10.87L98.13 10.87L98.13 10.87Q98.14 10.61 98.14 10.21L98.14 10.21L98.14 6.97L96.98 6.97L96.98 6.36L98.22 6.20L98.57 4.30L99.43 4.30L99.36 6.23L101.23 6.23L101.23 6.97L99.33 6.97L99.33 11.23L99.33 11.23Q99.33 11.77 99.53 12.02L99.53 12.02L99.53 12.02Q99.74 12.26 100.10 12.26L100.10 12.26L100.10 12.26Q100.52 12.26 101.04 11.87L101.04 11.87ZM105.27 6.62L105.27 6.62L105.27 6.62Q104.34 6.62 103.85 7.37L103.85 7.37L103.85 7.37Q103.36 8.12 103.36 9.55L103.36 9.55L103.36 9.55Q103.36 10.96 103.85 11.70L103.85 11.70L103.85 11.70Q104.34 12.43 105.27 12.43L105.27 12.43L105.27 12.43Q106.18 12.43 106.67 11.70L106.67 11.70L106.67 11.70Q107.16 10.96 107.16 9.55L107.16 9.55L107.16 9.55Q107.16 8.12 106.67 7.37L106.67 7.37L106.67 7.37Q106.18 6.62 105.27 6.62ZM105.27 5.98L105.27 5.98L105.27 5.98Q105.87 5.98 106.45 6.21L106.45 6.21L106.45 6.21Q107.03 6.44 107.48 6.90L107.48 6.90L107.48 6.90Q107.93 7.35 108.21 8.02L108.21 8.02L108.21 8.02Q108.49 8.68 108.49 9.55L108.49 9.55L108.49 9.55Q108.49 10.42 108.21 11.07L108.21 11.07L108.21 11.07Q107.94 11.73 107.49 12.17L107.49 12.17L107.49 12.17Q107.03 12.61 106.45 12.84L106.45 12.84L106.45 12.84Q105.87 13.06 105.27 13.06L105.27 13.06L105.27 13.06Q104.65 13.06 104.07 12.84L104.07 12.84L104.07 12.84Q103.49 12.61 103.04 12.17L103.04 12.17L103.04 12.17Q102.59 11.73 102.32 11.07L102.32 11.07L102.32 11.07Q102.05 10.42 102.05 9.55L102.05 9.55L102.05 9.55Q102.05 8.68 102.32 8.02L102.32 8.02L102.32 8.02Q102.59 7.35 103.05 6.90L103.05 6.90L103.05 6.90Q103.50 6.44 104.08 6.21L104.08 6.21L104.08 6.21Q104.65 5.98 105.27 5.98ZM111.75 6.12L111.90 7.76L111.90 7.76Q112.27 6.92 112.81 6.45L112.81 6.45L112.81 6.45Q113.34 5.98 113.92 5.98L113.92 5.98L113.92 5.98Q114.23 5.98 114.51 6.14L114.51 6.14L114.51 6.14Q114.80 6.30 114.87 6.66L114.87 6.66L114.87 6.66Q114.87 7.01 114.63 7.22L114.63 7.22L114.63 7.22Q114.39 7.42 114.03 7.42L114.03 7.42L114.03 7.42Q113.60 7.42 113.23 7.07L113.23 7.07L113.13 6.97L113.13 6.97Q112.70 7.29 112.41 7.74L112.41 7.74L112.41 7.74Q112.11 8.18 111.92 8.81L111.92 8.81L111.92 9.91L111.92 9.91Q111.92 10.37 111.92 10.99L111.92 10.99L111.92 10.99Q111.93 11.61 111.94 12.14L111.94 12.14L113.09 12.35L113.09 12.85L109.70 12.85L109.70 12.35L110.71 12.17L110.71 12.17Q110.73 11.63 110.73 11.01L110.73 11.01L110.73 11.01Q110.74 10.39 110.74 9.91L110.74 9.91L110.74 9.20L110.74 9.20Q110.74 8.62 110.73 8.25L110.73 8.25L110.73 8.25Q110.71 7.87 110.70 7.45L110.70 7.45L109.59 7.32L109.59 6.83L111.54 5.98L111.75 6.12ZM117.17 4.48L117.17 4.48L117.17 4.48Q116.76 4.48 116.49 4.23L116.49 4.23L116.49 4.23Q116.23 3.98 116.23 3.57L116.23 3.57L116.23 3.57Q116.23 3.16 116.49 2.92L116.49 2.92L116.49 2.92Q116.76 2.67 117.17 2.67L117.17 2.67L117.17 2.67Q117.57 2.67 117.84 2.92L117.84 2.92L117.84 2.92Q118.10 3.16 118.10 3.57L118.10 3.57L118.10 3.57Q118.10 3.98 117.84 4.23L117.84 4.23L117.84 4.23Q117.57 4.48 117.17 4.48ZM117.80 12.15L118.76 12.35L118.76 12.85L115.51 12.85L115.51 12.35L116.56 12.15L116.56 12.15Q116.58 11.62 116.59 11.00L116.59 11.00L116.59 11.00Q116.59 10.37 116.59 9.91L116.59 9.91L116.59 9.21L116.59 9.21Q116.59 8.64 116.58 8.25L116.58 8.25L116.58 8.25Q116.56 7.87 116.55 7.45L116.55 7.45L115.44 7.32L115.44 6.83L117.60 5.98L117.81 6.12L117.77 8.02L117.77 9.91L117.77 9.91Q117.77 10.37 117.78 11.00L117.78 11.00L117.78 11.00Q117.78 11.62 117.80 12.15L117.80 12.15ZM123.73 11.38L123.73 9.23L123.73 9.23Q123.37 9.32 123.03 9.44L123.03 9.44L123.03 9.44Q122.68 9.55 122.46 9.63L122.46 9.63L122.46 9.63Q122.00 9.81 121.72 10.00L121.72 10.00L121.72 10.00Q121.45 10.19 121.31 10.37L121.31 10.37L121.31 10.37Q121.17 10.56 121.13 10.74L121.13 10.74L121.13 10.74Q121.09 10.92 121.09 11.07L121.09 11.07L121.09 11.07Q121.09 11.35 121.16 11.52L121.16 11.52L121.16 11.52Q121.24 11.69 121.35 11.82L121.35 11.82L121.35 11.82Q121.67 12.14 122.21 12.14L122.21 12.14L122.21 12.14Q122.37 12.14 122.53 12.10L122.53 12.10L122.53 12.10Q122.68 12.07 122.85 11.98L122.85 11.98L122.85 11.98Q123.02 11.89 123.23 11.74L123.23 11.74L123.23 11.74Q123.44 11.59 123.73 11.38L123.73 11.38ZM125.97 11.94L126.25 12.25L126.25 12.25Q126.01 12.70 125.73 12.85L125.73 12.85L125.73 12.85Q125.45 12.99 125.12 12.99L125.12 12.99L125.12 12.99Q124.53 12.99 124.19 12.71L124.19 12.71L124.19 12.71Q123.86 12.42 123.76 11.94L123.76 11.94L123.76 11.94Q123.48 12.22 123.24 12.43L123.24 12.43L123.24 12.43Q123.00 12.64 122.77 12.78L122.77 12.78L122.77 12.78Q122.53 12.92 122.28 12.99L122.28 12.99L122.28 12.99Q122.02 13.06 121.72 13.06L121.72 13.06L121.72 13.06Q121.34 13.06 121.00 12.95L121.00 12.95L121.00 12.95Q120.65 12.84 120.39 12.61L120.39 12.61L120.39 12.61Q120.13 12.39 119.99 12.06L119.99 12.06L119.99 12.06Q119.84 11.73 119.84 11.30L119.84 11.30L119.84 11.30Q119.84 11.00 119.94 10.72L119.94 10.72L119.94 10.72Q120.04 10.44 120.29 10.19L120.29 10.19L120.29 10.19Q120.54 9.93 121.00 9.67L121.00 9.67L121.00 9.67Q121.45 9.41 122.16 9.16L122.16 9.16L122.16 9.16Q122.49 9.04 122.90 8.93L122.90 8.93L122.90 8.93Q123.31 8.81 123.73 8.69L123.73 8.69L123.73 8.32L123.73 8.32Q123.73 7.81 123.66 7.48L123.66 7.48L123.66 7.48Q123.58 7.15 123.42 6.96L123.42 6.96L123.42 6.96Q123.27 6.78 123.03 6.70L123.03 6.70L123.03 6.70Q122.78 6.62 122.43 6.62L122.43 6.62L122.43 6.62Q122.28 6.62 122.10 6.64L122.10 6.64L122.10 6.64Q121.93 6.65 121.72 6.69L121.72 6.69L121.44 7.67L121.44 7.67Q121.24 8.34 120.68 8.34L120.68 8.34L120.68 8.34Q120.39 8.34 120.22 8.18L120.22 8.18L120.22 8.18Q120.05 8.02 120.02 7.74L120.02 7.74L120.02 7.74Q120.22 6.94 120.95 6.46L120.95 6.46L120.95 6.46Q121.67 5.98 122.75 5.98L122.75 5.98L122.75 5.98Q123.86 5.98 124.39 6.54L124.39 6.54L124.39 6.54Q124.92 7.10 124.92 8.44L124.92 8.44L124.92 11.44L124.92 11.44Q124.92 12.26 125.38 12.26L125.38 12.26L125.38 12.26Q125.55 12.26 125.68 12.19L125.68 12.19L125.68 12.19Q125.80 12.11 125.90 12.03L125.90 12.03L125.97 11.94ZM129.04 12.15L130.14 12.35L130.14 12.85L126.70 12.85L126.70 12.35L127.81 12.15L127.81 12.15Q127.82 11.58 127.83 11.03L127.83 11.03L127.83 11.03Q127.83 10.47 127.83 9.91L127.83 9.91L127.83 3.91L126.69 3.77L126.69 3.28L128.87 2.65L129.07 2.76L129.01 4.75L129.01 9.91L129.01 9.91Q129.01 10.47 129.02 11.03L129.02 11.03L129.02 11.03Q129.02 11.59 129.04 12.15L129.04 12.15Z"></path></g><!----><!----></svg>